# File created by Blade
# Date/Time:  Wed Apr 08 17:16:55 2015
#---------------------------------------------------------
:version 1.10
:name HOM
:units
  mass 1.0
  length 1.000000
  angle deg
:documentation
     Acclaim Skeleton File
:root
   axis xyz
   order TX TY TZ RX RY RZ
   position 0.000000 0.000000 0.000000
   orientation 0 0 0
:bonedata
   begin
      id 1
      name Spine_dum
      direction 0.000000 1.000000 0.000000
      length 5.893853
      axis 0.0 0.0 0.0 xyz
   end
   begin
      id 2
      name LeftUpLeg_dum
      direction 1.000000 0.000000 0.000000
      length 3.697939
      axis 0.0 0.0 0.0 xyz
   end
   begin
      id 3
      name RightUpLeg_dum
      direction -1.000000 0.000000 0.000000
      length 3.697939
      axis 0.0 0.0 0.0 xyz
   end
   begin
      id 4
      name Spine
      direction 0.000000 1.000000 0.000000
      length 0.000000
      axis 0.0 0.0 0.0 xyz
      dof rx ry rz
   end
   begin
      id 5
      name Spine_dum1
      direction 0.000000 1.000000 0.000000
      length 16.447146
      axis 0.0 0.0 0.0 xyz
   end
   begin
      id 6
      name Spine_dum2
      direction 0.000000 1.000000 0.000000
      length 10.900383
      axis 0.0 0.0 0.0 xyz
   end
   begin
      id 7
      name Spine_dum3
      direction 0.000000 1.000000 0.000000
      length 10.900383
      axis 0.0 0.0 0.0 xyz
   end
   begin
      id 8
      name Head
      direction 0.000000 1.000000 0.000000
      length 4.527550
      axis 0.0 0.0 0.0 xyz
      dof rx ry rz
   end
   begin
      id 9
      name LeftShoulder
      direction 1.000000 0.000000 0.000000
      length 8.219464
      axis 0.0 0.0 -90.0 xyz
      dof rx ry rz
   end
   begin
      id 10
      name LeftArm
      direction 1.000000 0.000000 0.000000
      length 11.094937
      axis 0.0 0.0 -90.0 xyz
      dof rx ry rz
   end
   begin
      id 11
      name LeftForeArm
      direction 1.000000 0.000000 0.000000
      length 9.103875
      axis 0.0 0.0 -90.0 xyz
      dof ry rz rx
   end
   begin
      id 12
      name LeftHand
      direction 0.000000 0.000000 0.000000
      length 0.000000
      axis 0.0 0.0 -90.0 xyz
      dof rx ry rz
   end
   begin
      id 13
      name LeftHand_dum1
      direction 0.000000 0.000000 0.000000
      length 0.000000
      axis 0.0 0.0 -90.0 xyz
   end
   begin
      id 14
      name LeftHand_dum2
      direction 1.000000 0.000000 0.000000
      length 3.937000
      axis 0.0 0.0 -90.0 xyz
   end
   begin
      id 15
      name LeftHandThumb1
      direction 0.000000 0.000000 1.000000
      length 3.937000
      axis 0.0 0.0 -90.0 xyz
      dof rx rz ry
   end
   begin
      id 16
      name RightShoulder
      direction -1.000000 0.000000 0.000000
      length 8.219464
      axis 0.0 0.0 90.0 xyz
      dof rx ry rz
   end
   begin
      id 17
      name RightArm
      direction -1.000000 0.000000 0.000000
      length 11.094937
      axis 0.0 0.0 90.0 xyz
      dof rx ry rz
   end
   begin
      id 18
      name RightForeArm
      direction -1.000000 0.000000 0.000000
      length 9.103875
      axis 0.0 0.0 90.0 xyz
      dof ry rz rx
   end
   begin
      id 19
      name RightHand
      direction 0.000000 0.000000 0.000000
      length 0.000000
      axis 0.0 0.0 90.0 xyz
      dof rx ry rz
   end
   begin
      id 20
      name RightHand_dum1
      direction 0.000000 0.000000 0.000000
      length 0.000000
      axis 0.0 0.0 90.0 xyz
   end
   begin
      id 21
      name RightHand_dum2
      direction -1.000000 0.000000 0.000000
      length 3.937000
      axis 0.0 0.0 90.0 xyz
   end
   begin
      id 22
      name RightHandThumb1
      direction 0.000000 0.000000 1.000000
      length 3.937000
      axis 0.0 0.0 90.0 xyz
      dof rx rz ry
   end
   begin
      id 23
      name LeftUpLeg
      direction 0.000000 -1.000000 0.000000
      length 16.181467
      axis 0.0 0.0 0.0 xyz
      dof rx ry rz
   end
   begin
      id 24
      name LeftLeg
      direction 0.000000 -1.000000 0.000000
      length 16.501392
      axis 0.0 0.0 0.0 xyz
      dof rx ry rz
   end
   begin
      id 25
      name LeftFoot
      direction 0.000000 -0.258819 0.965926
      length 6.408245
      axis 15.0 0.0 0.0 xyz
      dof rx ry rz
   end
   begin
      id 26
      name LeftToeBase
      direction 0.000000 0.000000 1.000000
      length 2.952750
      axis 0.0 0.0 0.0 xyz
      dof rx ry rz
   end
   begin
      id 27
      name RightUpLeg
      direction 0.000000 -1.000000 0.000000
      length 16.181467
      axis 0.0 0.0 0.0 xyz
      dof rx ry rz
   end
   begin
      id 28
      name RightLeg
      direction 0.000000 -1.000000 0.000000
      length 16.501392
      axis 0.0 0.0 0.0 xyz
      dof rx ry rz
   end
   begin
      id 29
      name RightFoot
      direction 0.000000 -0.258819 0.965926
      length 6.408245
      axis 15.0 0.0 0.0 xyz
      dof rx ry rz
   end
   begin
      id 30
      name RightToeBase
      direction 0.000000 0.000000 1.000000
      length 2.952750
      axis 0.0 0.0 0.0 xyz
      dof rx ry rz
   end
:hierarchy
   begin
      root Spine_dum LeftUpLeg_dum RightUpLeg_dum
      Spine_dum Spine
      LeftUpLeg_dum LeftUpLeg
      RightUpLeg_dum RightUpLeg
      Spine Spine_dum1 Spine_dum2 Spine_dum3
      Spine_dum1 Head
      Spine_dum2 LeftShoulder
      Spine_dum3 RightShoulder
      LeftShoulder LeftArm
      LeftArm LeftForeArm
      LeftForeArm LeftHand
      LeftHand LeftHand_dum1 LeftHand_dum2
      LeftHand_dum1 LeftHandThumb1
      RightShoulder RightArm
      RightArm RightForeArm
      RightForeArm RightHand
      RightHand RightHand_dum1 RightHand_dum2
      RightHand_dum1 RightHandThumb1
      LeftUpLeg LeftLeg
      LeftLeg LeftFoot
      LeftFoot LeftToeBase
      RightUpLeg RightLeg
      RightLeg RightFoot
      RightFoot RightToeBase
   end

# File created by Blade
# Date/Time:  Wed Apr 08 17:17:01 2015
# Frame Rate: 120.000 fps
#------------------------------------------------------
:FULLY-SPECIFIED
:DEGREES
503
root 4.229020 36.698209 4.431962 -10.146732 -18.418080 -9.306497
Spine 16.671057 1.220781 13.846452
Head 9.070280 26.129587 0.669407
LeftShoulder -5.778009 15.848886 14.701941
LeftArm 23.050974 32.201089 -73.608116
LeftForeArm 29.485832 0.000000 31.106470
LeftHand -8.990850 -0.000000 -17.124055
LeftHandThumb1 -26.253704 0.000000 33.147579
RightShoulder -22.600101 -47.751733 15.484801
RightArm 63.256469 -18.722610 41.916880
RightForeArm 34.341048 0.000000 22.361408
RightHand -4.909750 -0.000000 16.264258
RightHandThumb1 -24.326973 -0.000000 -32.862282
LeftUpLeg 13.143081 7.883113 6.818845
LeftLeg 12.603024 -0.000000 -0.000000
LeftFoot -12.886232 -15.634757 -12.983103
LeftToeBase 22.658234 -0.000000 -0.000000
RightUpLeg -65.350028 8.531074 1.502224
RightLeg 157.626937 -0.000000 -0.000000
RightFoot 39.466171 11.273854 14.388756
RightToeBase -7.691429 -0.000000 0.000000
504
root 4.220608 36.695304 4.437226 -10.216760 -18.167922 -9.224649
Spine 16.669938 1.185379 13.806880
Head 9.101275 26.051885 0.606064
LeftShoulder -5.816452 15.910951 14.663258
LeftArm 22.886009 32.115371 -73.630130
LeftForeArm 29.306690 -0.000000 30.691391
LeftHand -8.706286 0.000000 -17.193651
LeftHandThumb1 -26.253704 0.000000 33.147579
RightShoulder -22.566575 -47.756019 15.415961
RightArm 63.224836 -18.762514 42.096914
RightForeArm 34.286567 0.000000 22.336792
RightHand -4.715432 0.000000 16.301806
RightHandThumb1 -24.326973 -0.000000 -32.862282
LeftUpLeg 13.191899 7.773319 6.727032
LeftLeg 12.515945 -0.000000 -0.000000
LeftFoot -12.768409 -15.570238 -12.334241
LeftToeBase 22.276051 -0.000000 -0.000000
RightUpLeg -65.360592 8.511378 1.557787
RightLeg 157.628997 -0.000000 -0.000000
RightFoot 39.483102 11.366956 14.356073
RightToeBase -7.994892 -0.000000 0.000000
505
root 4.212686 36.692686 4.442144 -10.295856 -17.939809 -9.140633
Spine 16.690342 1.199585 13.784129
Head 9.112693 25.933741 0.547886
LeftShoulder -5.797077 15.934274 14.656048
LeftArm 22.660623 31.986722 -73.719898
LeftForeArm 29.109774 -0.000000 30.304719
LeftHand -8.700047 -0.000000 -17.135888
LeftHandThumb1 -26.253704 0.000000 33.147579
RightShoulder -22.590240 -47.784832 15.429386
RightArm 63.160531 -18.720790 42.369888
RightForeArm 34.180104 -0.000000 22.360515
RightHand -4.576722 -0.000000 16.175858
RightHandThumb1 -24.326973 -0.000000 -32.862282
LeftUpLeg 13.257923 7.698387 6.626868
LeftLeg 12.411930 -0.000000 -0.000000
LeftFoot -12.707895 -15.392536 -11.283355
LeftToeBase 21.712642 -0.000000 -0.000000
RightUpLeg -65.365350 8.520746 1.570051
RightLeg 157.613846 -0.000000 -0.000000
RightFoot 39.556559 11.538662 14.337031
RightToeBase -8.225508 -0.000000 0.000000
506
root 4.205212 36.690342 4.448244 -10.374966 -17.731701 -9.054320
Spine 16.715881 1.238213 13.770252
Head 9.108065 25.801133 0.494417
LeftShoulder -5.796951 15.975960 14.638830
LeftArm 22.518375 31.931484 -73.726508
LeftForeArm 28.895127 -0.000000 29.927575
LeftHand -8.834552 -0.000000 -17.291296
LeftHandThumb1 -26.253704 0.000000 33.147579
RightShoulder -22.677876 -47.833936 15.551279
RightArm 63.153217 -18.612880 42.540238
RightForeArm 34.015144 -0.000000 22.392809
RightHand -4.298082 -0.000000 16.586376
RightHandThumb1 -24.326973 -0.000000 -32.862282
LeftUpLeg 13.340207 7.576589 6.496342
LeftLeg 12.275696 -0.000000 -0.000000
LeftFoot -12.556691 -15.135075 -10.357128
LeftToeBase 19.570938 -0.000000 -0.000000
RightUpLeg -65.361235 8.537907 1.603297
RightLeg 157.599235 -0.000000 -0.000000
RightFoot 39.599123 11.708778 14.257577
RightToeBase -8.277375 -0.000000 0.000000
507
root 4.201244 36.687214 4.453887 -10.443932 -17.528445 -8.943419
Spine 16.723547 1.286982 13.733728
Head 9.113936 25.663164 0.469154
LeftShoulder -5.792720 15.984816 14.622621
LeftArm 22.352693 31.815822 -73.784373
LeftForeArm 28.767580 -0.000000 29.456856
LeftHand -8.535612 -0.000000 -17.414983
LeftHandThumb1 -26.253704 0.000000 33.147579
RightShoulder -22.885245 -47.907113 15.808840
RightArm 63.298058 -18.483489 42.465929
RightForeArm 33.946865 -0.000000 22.346010
RightHand -4.208366 -0.000000 16.809423
RightHandThumb1 -24.326973 -0.000000 -32.862282
LeftUpLeg 13.415317 7.330662 6.280285
LeftLeg 12.124957 -0.000000 -0.000000
LeftFoot -12.420417 -14.675022 -9.320419
LeftToeBase 18.988812 -0.000000 -0.000000
RightUpLeg -65.380601 8.539416 1.638365
RightLeg 157.586753 -0.000000 -0.000000
RightFoot 39.604619 11.735644 14.185470
RightToeBase -8.021513 -0.000000 0.000000
508
root 4.197566 36.683601 4.458731 -10.512023 -17.347767 -8.830802
Spine 16.735069 1.336222 13.699543
Head 9.130342 25.539403 0.448336
LeftShoulder -5.790699 16.014183 14.600346
LeftArm 22.193372 31.679813 -73.825818
LeftForeArm 28.535996 0.000000 29.052335
LeftHand -8.590071 -0.000000 -17.628658
LeftHandThumb1 -26.253704 0.000000 33.147579
RightShoulder -22.965910 -47.928678 15.936223
RightArm 63.372464 -18.362906 42.536693
RightForeArm 33.805536 -0.000000 22.211901
RightHand -4.548396 0.000000 16.806223
RightHandThumb1 -24.326973 -0.000000 -32.862282
LeftUpLeg 13.504699 7.022401 6.020135
LeftLeg 11.942716 -0.000000 -0.000000
LeftFoot -12.321179 -14.100313 -8.310925
LeftToeBase 17.986741 -0.000000 -0.000000
RightUpLeg -65.399641 8.548959 1.691609
RightLeg 157.578085 -0.000000 -0.000000
RightFoot 39.582063 11.592501 14.243688
RightToeBase -7.774170 -0.000000 0.000000
